<svg xmlns="http://www.w3.org/2000/svg" version="1.1" xmlns:xlink="http://www.w3.org/1999/xlink" xmlns:svgjs="http://svgjs.dev/svgjs" width="1500" height="1500" viewBox="0 0 1500 1500"><rect width="1500" height="1500" fill="#000000"></rect><g transform="matrix(0.6666666666666666,0,0,0.6666666666666666,250,348.59897201400145)"><svg viewBox="0 0 448 360" data-background-color="#ffffff" preserveAspectRatio="xMidYMid meet" height="1205" width="1500" xmlns="http://www.w3.org/2000/svg" xmlns:xlink="http://www.w3.org/1999/xlink"><g id="tight-bounds" transform="matrix(1,0,0,1,0,-0.11904140046539169)"><svg viewBox="0 0 448 360" height="360" width="448"><g><svg></svg></g><g><svg viewBox="0 0 448 360" height="360" width="448"><g><path transform="translate(36.9151,-7.08178) scale(0.00624,0.00624)" d="M25167 8301c221 0 400 179 400 400 0 221-179 400-400 400h-3824l-2753 2753c-156 156-409 156-566 0-156-156-156-409 0-566l2188-2188h-6475c-1847 0-3071 431-3819 1301-760 885-1068 2254-1068 4110 0 11 0 22-1 33l34 5884 2356-2356c156-156 409-156 566 0 156 156 156 409 0 566l-2915 2915c33 5746 31 11443-2 17189 4087 4041 8117 8068 12157 12154h4070c221 0 400 179 400 400 0 221-179 400-400 400h-3279l4160 4208 1-1c1313 1313 2498 2062 3660 2151 1146 87 2316-474 3622-1779l4579-4579h-3323c-221 0-400-179-400-400 0-221 179-400 400-400h4123l2666-2666c156-156 409-156 566 0 156 156 156 409 0 566l-2101 2101h6475c1847 0 3071-431 3819-1301 760-885 1068-2254 1068-4110h2l-34-5917-2568 2568c-156 156-409 156-566 0-156-156-156-409 0-566l3127-3127c-33-5746-31-11443 2-17189-4087-4041-8117-8068-12157-12154h-4193c-221 0-400-179-400-400 0-221 179-400 400-400h3402l-4141-4189c-7-6-13-12-20-18-1313-1313-2498-2062-3660-2151-1146-87-2316 474-3622 1779l-4579 4579h3024zM13737 8301h7275l5144-5144c1483-1483 2856-2116 4247-2010 1374 104 2719 934 4167 2382 8 8 15 15 22 23l4695 4749h6977c2096 0 3515 524 4425 1583 898 1045 1261 2582 1261 4629 0 13-1 25-2 37l-36 6373 4559 4508 1-1c1448 1448 2278 2792 2382 4167 106 1391-528 2764-2010 4247l-4934 4934 38 6710h2c0 2047-364 3584-1261 4629-910 1059-2329 1583-4425 1583h-7275l-5144 5144c-1483 1483-2856 2116-4247 2010-1374-104-2719-934-4167-2382l1-1-4718-4772h-6977c-2096 0-3515-524-4425-1583-898-1045-1261-2582-1261-4629h2l37-6410-4537-4485c-8-7-16-14-23-22-1448-1448-2278-2792-2382-4167-106-1391 528-2764 2010-4247l4934-4934-38-6672c-1-12-2-25-2-37 0-2047 364-3584 1261-4629 910-1059 2329-1583 4425-1583zM8141 30000l-44-7653-4374 4374c-1305 1305-1866 2476-1779 3622 88 1162 838 2348 2151 3660 6 6 13 13 18 20l3983 3937 45-7961zM8882 39860l-32 5627h2c0 1857 308 3226 1068 4110 748 871 1972 1301 3819 1301h6186l-5380-5442-5662-5597zM46264 9101h-6186l5380 5442 5662 5597 32-5594c-1-11-1-22-1-33 0-1857-308-3226-1068-4110-748-871-1972-1301-3819-1301zM51906 22039l-45 7961 44 7653 4374-4374c1305-1305 1866-2476 1779-3622-88-1163-838-2348-2151-3660l1-1-4002-3956z" fill="#ffffff" fill-rule="nonzero" stroke="none" stroke-width="1" stroke-linecap="butt" stroke-linejoin="miter" stroke-miterlimit="10" stroke-dasharray="" stroke-dashoffset="0" font-family="none" font-weight="none" font-size="none" text-anchor="none" style="mix-blend-mode: normal" data-fill-palette-color="tertiary"></path></g><g transform="matrix(1,0,0,1,134,90)"><svg viewBox="0 0 180 180" height="180" width="180"><g><svg viewBox="0 0 180 180" height="180" width="180"><g><svg viewBox="0 0 180 180" height="180" width="180"><g id="textblocktransform"><svg viewBox="0 0 180 180" height="180" width="180" id="textblock"><g><svg viewBox="0 0 180 180" height="180" width="180"><g transform="matrix(1,0,0,1,47.997857197519075,49.76969133312037)"><svg viewBox="0 0 84.00428560496185 80.46061733375926" height="80.46061733375926" width="84.00428560496185"><g id="icon-0"><svg xmlns="http://www.w3.org/2000/svg" xmlns:xlink="http://www.w3.org/1999/xlink" version="1.1" x="0" y="0" viewBox="0.572 1.603 48.855 46.794082367728905" enable-background="new 0 0 50 50" xml:space="preserve" height="80.46061733375926" width="84.00428560496185" class="icon-xg-0" data-fill-palette-color="accent" id="xg-0"><g fill="#0ed88a" data-fill-palette-color="accent"><g fill="#0ed88a" data-fill-palette-color="accent"><g fill="#0ed88a" data-fill-palette-color="accent"><line fill="#ffffff" x1="42.187" y1="30.881" x2="16.181" y2="39.004" data-fill-palette-color="accent"></line><polygon fill="#ffffff" points="41.73,29.426 15.726,37.543 16.637,40.461 42.643,32.338    " data-fill-palette-color="accent"></polygon></g><g fill="#0ed88a" data-fill-palette-color="accent"><path fill="#ffffff" d="M18.572 42.535c0.061 0.605-0.122 1.195-0.513 1.664-0.388 0.471-0.934 0.756-1.539 0.814-1.254 0.119-2.364-0.807-2.485-2.057-0.055-0.605 0.129-1.199 0.516-1.666 0.388-0.469 0.935-0.758 1.542-0.813 0.607-0.059 1.196 0.123 1.666 0.514C18.229 41.379 18.515 41.926 18.572 42.535zM15.808 37.434c-1.421 0.137-2.701 0.816-3.609 1.91-0.905 1.096-1.334 2.48-1.201 3.9 0.276 2.928 2.881 5.082 5.807 4.811 1.42-0.133 2.7-0.811 3.605-1.908 0.913-1.098 1.338-2.482 1.204-3.898-0.13-1.416-0.811-2.699-1.907-3.607C18.611 37.732 17.226 37.303 15.808 37.434z" data-fill-palette-color="accent"></path></g><g fill="#0ed88a" data-fill-palette-color="accent"><line fill="#ffffff" x1="13.436" y1="30.992" x2="39.554" y2="39.439" data-fill-palette-color="accent"></line><rect x="12.773" y="33.689" transform="matrix(-0.9514 -0.3078 0.3078 -0.9514 40.8641 76.8801)" fill="#ffffff" width="27.446" height="3.055" data-fill-palette-color="accent"></rect></g><g fill="#0ed88a" data-fill-palette-color="accent"><path fill="#ffffff" d="M32.707 42.547c-0.14 1.416 0.282 2.803 1.186 3.902 0.902 1.1 2.179 1.783 3.599 1.922 2.926 0.289 5.538-1.857 5.828-4.781 0.286-2.928-1.862-5.541-4.786-5.83-1.416-0.137-2.801 0.281-3.903 1.188C33.529 39.846 32.847 41.129 32.707 42.547zM38.236 40.795c1.249 0.127 2.167 1.244 2.044 2.494-0.123 1.248-1.241 2.168-2.491 2.049-0.604-0.063-1.15-0.357-1.538-0.824-0.388-0.473-0.565-1.068-0.505-1.674 0.058-0.604 0.353-1.148 0.822-1.537C37.034 40.918 37.63 40.738 38.236 40.795z" data-fill-palette-color="accent"></path></g><g fill="#0ed88a" data-fill-palette-color="accent"><polygon fill="#ffffff" points="11.115,19.867 5.497,2.681 5.155,1.64 4.058,1.63 0.6,1.603 0.572,4.656 4.033,4.685 2.594,3.63      8.214,20.812    " data-fill-palette-color="accent"></polygon></g><g fill="#0ed88a" data-fill-palette-color="accent"><polygon fill="#ffffff" points="17.158,26.744 37.898,26.744 40.767,19.382 15.07,19.474    " data-fill-palette-color="accent"></polygon><path fill="#ffffff" d="M5.756 13.544L12.45 32.75l29.955-0.223 7.022-18.983H5.756zM40.365 28.826l-0.379 0.973h-1.044H16.009h-1.149l-0.318-1.104L11.579 18.38l-0.558-1.939 2.021-0.008 29.954-0.109 2.243-0.01-0.815 2.088L40.365 28.826z" data-fill-palette-color="accent"></path></g></g><g fill="#0ed88a" data-fill-palette-color="accent"><path fill-rule="evenodd" clip-rule="evenodd" fill="#ffffff" d="M32.577 11.763h3.868L32.577 8.57l-3.866-3.191L24.847 8.57l-3.865 3.193h3.81H32.577z" data-fill-palette-color="accent"></path></g></g></svg></g></svg></g><g id="text-0"><path d="M17.177 55.3v0c1.012 0.358 1.821 0.938 2.425 1.74 0.601 0.793 0.948 1.754 1.044 2.883 0.092 1.136-0.105 2.392-0.592 3.767v0c-0.493 1.394-1.136 2.542-1.928 3.444-0.792 0.902-1.663 1.593-2.614 2.074v0l-1.205-2.211c0.77-0.415 1.452-0.955 2.045-1.619 0.597-0.656 1.072-1.48 1.423-2.473v0c0.23-0.649 0.339-1.281 0.326-1.894-0.012-0.613-0.168-1.155-0.467-1.627-0.299-0.471-0.757-0.816-1.375-1.034v0c-0.509-0.18-0.976-0.227-1.401-0.141-0.418 0.088-0.861 0.337-1.327 0.745-0.46 0.41-0.986 1.026-1.578 1.848v0c-0.791 1.081-1.558 1.953-2.301 2.614-0.736 0.664-1.494 1.094-2.273 1.292-0.773 0.199-1.608 0.14-2.505-0.177v0c-0.93-0.329-1.654-0.872-2.175-1.629-0.514-0.755-0.806-1.65-0.877-2.686-0.073-1.029 0.09-2.107 0.489-3.233v0c0.442-1.248 1.008-2.272 1.7-3.074 0.685-0.803 1.489-1.454 2.41-1.952v0l1.182 2.127c-0.745 0.424-1.36 0.937-1.845 1.539-0.487 0.608-0.858 1.272-1.113 1.992v0c-0.205 0.579-0.308 1.134-0.309 1.664-0.003 0.536 0.109 0.998 0.336 1.387 0.228 0.389 0.59 0.671 1.087 0.846v0c0.439 0.155 0.862 0.165 1.268 0.03 0.398-0.132 0.837-0.442 1.318-0.931 0.475-0.491 1.046-1.195 1.715-2.112v0c0.627-0.86 1.283-1.602 1.969-2.226 0.684-0.618 1.443-1.03 2.275-1.237 0.826-0.209 1.784-0.121 2.873 0.264z" fill="#ffffff" data-fill-palette-color="primary"></path><path d="M33.934 35.165l2.196 0.391c-0.07 0.603-0.25 1.247-0.541 1.931-0.287 0.679-0.675 1.321-1.162 1.926v0c-1.017 1.262-2.117 1.959-3.299 2.091-1.183 0.122-2.308-0.247-3.375-1.107v0l-5.9-4.755-1.952 2.422-1.672-1.348 1.952-2.421-2.43-1.958 1.58-2.526 2.706 2.18 2.949-3.66 1.469 1.6-2.746 3.408 5.876 4.736c0.584 0.47 1.134 0.675 1.651 0.615 0.521-0.066 1.049-0.43 1.583-1.092v0c0.322-0.4 0.571-0.806 0.748-1.219 0.177-0.413 0.299-0.817 0.367-1.214z" fill="#ffffff" data-fill-palette-color="primary"></path><path d="M45.444 11.938v0c1.169-0.703 2.31-1.034 3.421-0.994 1.118 0.037 2.164 0.401 3.139 1.091 0.975 0.69 1.843 1.669 2.606 2.937v0c0.759 1.262 1.211 2.491 1.356 3.689 0.154 1.2-0.013 2.305-0.501 3.315-0.491 1.005-1.313 1.853-2.464 2.547v0c-1.157 0.696-2.292 1.032-3.402 1.006-1.111-0.025-2.158-0.385-3.143-1.078-0.99-0.689-1.871-1.676-2.644-2.961v0c-0.748-1.244-1.195-2.465-1.34-3.662-0.151-1.194 0.019-2.301 0.509-3.321 0.484-1.016 1.305-1.873 2.463-2.569zM46.629 13.909v0c-0.914 0.55-1.39 1.313-1.426 2.288-0.045 0.973 0.379 2.203 1.274 3.69v0c0.891 1.482 1.776 2.435 2.655 2.861 0.882 0.431 1.78 0.372 2.694-0.179v0c0.909-0.547 1.379-1.31 1.412-2.291 0.036-0.975-0.395-2.21-1.293-3.703v0c-0.888-1.476-1.766-2.425-2.635-2.848-0.873-0.429-1.766-0.368-2.681 0.182z" fill="#ffffff" data-fill-palette-color="primary"></path><path d="M79.541 14.928l-7.668 1.539-0.416-2.076 2.006-0.403-1.916-9.545-2.006 0.403-0.413-2.056 4.221-0.847 1.173 3.06c0.28-1.248 0.737-2.249 1.37-3.003 0.634-0.754 1.547-1.251 2.739-1.49v0c0.404-0.081 0.775-0.121 1.113-0.12 0.338 0.001 0.679 0.022 1.025 0.063v0l-0.376 2.659c-0.294-0.024-0.564-0.031-0.81-0.023-0.252 0.016-0.523 0.053-0.815 0.111v0c-0.993 0.199-1.776 0.742-2.349 1.629-0.573 0.886-0.928 2.053-1.065 3.5v0l1.019 5.075 2.751-0.552zM81.283 5.589l-2.076 0.416-0.676-3.367 0.033-1.742 2.205-0.443z" fill="#ffffff" data-fill-palette-color="primary"></path><path d="M100.579 15.049l-2.927-0.429 2.02-13.802 2.526 0.369-0.041 1.817c0.677-0.618 1.437-1.052 2.28-1.305 0.836-0.253 1.668-0.319 2.497-0.197v0c1.29 0.189 2.203 0.691 2.738 1.506 0.537 0.809 0.71 1.865 0.519 3.168v0l-1.473 10.064-2.937-0.43 1.262-8.62c0.117-0.802 0.165-1.454 0.143-1.955-0.022-0.502-0.161-0.88-0.418-1.136-0.248-0.262-0.65-0.433-1.204-0.515v0c-0.448-0.066-0.886-0.031-1.316 0.105-0.429 0.135-0.834 0.332-1.212 0.59-0.372 0.259-0.708 0.545-1.006 0.856v0z" fill="#ffffff" data-fill-palette-color="primary"></path><path d="M134.68 5.635l-3.632 6.673c0.731-0.325 1.466-0.49 2.207-0.494 0.744-0.01 1.457 0.17 2.139 0.541v0c1.074 0.584 1.802 1.323 2.185 2.215 0.38 0.899 0.463 1.912 0.249 3.042-0.212 1.138-0.671 2.357-1.378 3.656v0c-0.678 1.246-1.465 2.255-2.363 3.027-0.903 0.77-1.868 1.236-2.895 1.401-1.027 0.164-2.072-0.043-3.134-0.621v0c-1.364-0.742-2.162-1.834-2.393-3.275v0l-0.801 1.133-2.287-1.244 9.345-17.175zM128.488 22.737v0c0.884 0.481 1.764 0.495 2.642 0.042 0.871-0.456 1.726-1.456 2.565-2.999v0c0.568-1.044 0.932-1.946 1.091-2.704 0.168-0.762 0.146-1.393-0.066-1.893-0.215-0.509-0.593-0.911-1.132-1.204v0c-0.581-0.316-1.185-0.422-1.811-0.317-0.629 0.111-1.23 0.318-1.803 0.622v0l-3.119 5.731c0.052 0.597 0.21 1.133 0.475 1.607 0.274 0.472 0.66 0.843 1.158 1.115z" fill="#ffffff" data-fill-palette-color="primary"></path><path d="M154.476 28.007l4.68 5.219-8.771 7.866 2.53 2.821-1.614 1.447-7.298-8.138 1.614-1.447 2.793 3.115 7.158-6.419-2.706-3.017zM162.868 27.122v0c0.388 0.432 0.57 0.899 0.547 1.4-0.028 0.505-0.237 0.934-0.629 1.286v0c-0.392 0.352-0.844 0.516-1.354 0.493-0.505-0.028-0.952-0.257-1.34-0.69v0c-0.374-0.417-0.55-0.881-0.527-1.392 0.033-0.51 0.245-0.941 0.637-1.292v0c0.392-0.352 0.841-0.514 1.347-0.487 0.505 0.037 0.945 0.264 1.319 0.682z" fill="#ffffff" data-fill-palette-color="primary"></path><path d="M162.696 63.752v0c0.242 0.609 0.571 1.132 0.985 1.571 0.417 0.445 0.888 0.835 1.415 1.17v0l-1.26 1.985c-0.708-0.372-1.374-0.903-1.997-1.594-0.615-0.686-1.093-1.459-1.435-2.318v0c-0.527-1.324-0.699-2.568-0.515-3.731 0.184-1.164 0.684-2.199 1.501-3.105 0.819-0.9 1.903-1.619 3.252-2.156v0c1.318-0.524 2.594-0.742 3.83-0.652 1.235 0.09 2.342 0.489 3.322 1.197 0.982 0.714 1.738 1.736 2.267 3.066v0c0.352 0.885 0.545 1.753 0.579 2.605 0.031 0.845-0.086 1.684-0.351 2.516v0l-2.237-0.581c0.149-0.648 0.213-1.273 0.191-1.875-0.028-0.6-0.153-1.179-0.375-1.737v0c-0.407-1.023-1.116-1.708-2.126-2.055-1.013-0.353-2.325-0.208-3.938 0.434v0c-1.079 0.43-1.888 0.926-2.428 1.489-0.541 0.557-0.858 1.159-0.949 1.806-0.088 0.638 0.002 1.293 0.269 1.965z" fill="#ffffff" data-fill-palette-color="primary"></path><path d="M0 89.697c0-4.386 3.555-7.941 7.941-7.941 4.386 0 7.941 3.555 7.941 7.941 0 4.386-3.555 7.941-7.941 7.941-4.386 0-7.941-3.555-7.941-7.941z" fill="#ffffff" data-fill-palette-color="primary"></path><path d="M164.118 89.697c0-4.386 3.555-7.941 7.941-7.941 4.386 0 7.941 3.555 7.941 7.941 0 4.386-3.555 7.941-7.941 7.941-4.386 0-7.941-3.555-7.941-7.941z" fill="#ffffff" data-fill-palette-color="primary"></path></g><g id="text-1"><path d="M14.366 127.262v0c-1.148 0.421-2.277 0.501-3.387 0.239-1.11-0.262-2.115-0.853-3.014-1.775-0.908-0.926-1.649-2.172-2.224-3.738v0c-0.582-1.585-0.853-3.061-0.815-4.427 0.038-1.366 0.303-2.604 0.796-3.713v0l2.666 1.062c-0.378 0.93-0.587 1.899-0.628 2.906-0.04 1.008 0.148 2.079 0.564 3.214v0c0.27 0.735 0.631 1.366 1.082 1.89 0.46 0.529 0.989 0.892 1.587 1.091 0.604 0.196 1.261 0.163 1.972-0.098v0c0.571-0.209 1.013-0.505 1.326-0.886 0.305-0.385 0.513-0.926 0.624-1.621 0.105-0.693 0.119-1.616 0.042-2.767v0c-0.093-1.527-0.053-2.851 0.119-3.971 0.165-1.118 0.515-2.048 1.048-2.791 0.536-0.736 1.314-1.291 2.334-1.666v0c1.059-0.389 2.088-0.435 3.089-0.14 1.004 0.286 1.911 0.856 2.721 1.71 0.816 0.852 1.459 1.918 1.929 3.198v0c0.519 1.414 0.77 2.725 0.752 3.933-0.02 1.201-0.254 2.356-0.704 3.463v0l-2.581-1.006c0.349-0.912 0.515-1.811 0.499-2.698-0.016-0.886-0.173-1.735-0.47-2.546v0c-0.242-0.659-0.557-1.224-0.945-1.693-0.382-0.471-0.813-0.795-1.295-0.971-0.482-0.176-1.008-0.159-1.579 0.051v0c-0.495 0.181-0.871 0.478-1.13 0.889-0.253 0.409-0.412 1.004-0.479 1.784-0.06 0.777-0.052 1.81 0.026 3.098v0c0.077 1.209 0.041 2.337-0.107 3.384-0.15 1.041-0.516 1.956-1.098 2.745-0.577 0.78-1.484 1.397-2.72 1.85z" fill="#ffffff" data-fill-palette-color="secondary"></path><path d="M27.849 151.096l-0.957 2.352c-0.655-0.215-1.33-0.566-2.025-1.054-0.69-0.482-1.315-1.066-1.875-1.752v0c-1.166-1.428-1.681-2.817-1.545-4.166 0.136-1.349 0.811-2.52 2.025-3.511v0l6.685-5.459-2.243-2.747 1.899-1.55 2.243 2.746 2.754-2.249 2.448 2.357-3.068 2.505 3.389 4.151-2.136 1.26-3.152-3.86-6.662 5.44c-0.664 0.543-1.022 1.109-1.072 1.699-0.055 0.594 0.225 1.268 0.84 2.021v0c0.372 0.455 0.766 0.826 1.184 1.113 0.422 0.292 0.844 0.527 1.268 0.704z" fill="#ffffff" data-fill-palette-color="secondary"></path><path d="M53.981 154.151v0c1.333 0.797 2.28 1.767 2.839 2.912 0.557 1.135 0.75 2.379 0.578 3.732-0.168 1.347-0.685 2.746-1.55 4.195v0c-0.859 1.438-1.85 2.557-2.974 3.357-1.125 0.791-2.326 1.214-3.603 1.27-1.273 0.05-2.57-0.32-3.892-1.11v0c-1.316-0.786-2.262-1.745-2.837-2.875-0.566-1.133-0.769-2.379-0.61-3.74 0.169-1.362 0.692-2.777 1.568-4.244v0c0.849-1.42 1.833-2.528 2.953-3.322 1.125-0.791 2.331-1.215 3.616-1.273 1.286-0.058 2.589 0.308 3.912 1.098zM52.635 156.403v0c-1.044-0.624-2.066-0.696-3.069-0.216-1.006 0.485-2.016 1.577-3.031 3.275v0c-1.008 1.687-1.492 3.09-1.451 4.207 0.044 1.112 0.587 1.98 1.631 2.603v0c1.044 0.624 2.065 0.691 3.065 0.203 1.003-0.494 2.014-1.593 3.032-3.298v0c1.005-1.681 1.488-3.076 1.45-4.185-0.041-1.103-0.584-1.966-1.627-2.589z" fill="#ffffff" data-fill-palette-color="secondary"></path><path d="M77.092 179.146l-8.737-1.768 0.478-2.363 2.283 0.462 2.202-10.882-2.284-0.462 0.475-2.344 4.805 0.973-0.125 3.736c0.848-1.193 1.771-2.043 2.769-2.55 0.998-0.508 2.176-0.624 3.533-0.35v0c0.463 0.094 0.873 0.215 1.229 0.362 0.356 0.148 0.704 0.318 1.044 0.511v0l-1.565 2.629c-0.294-0.149-0.575-0.275-0.844-0.377-0.27-0.096-0.57-0.177-0.901-0.245v0c-1.132-0.229-2.193-0.006-3.185 0.669-0.999 0.68-1.891 1.75-2.675 3.21v0l-1.171 5.789 3.148 0.637zM83.037 170.096l-2.363-0.478 0.775-3.833 0.803-1.822 2.512 0.508z" fill="#ffffff" data-fill-palette-color="secondary"></path><path d="M102.176 179.141l-3.341 0.469-2.21-15.751 2.879-0.404 0.537 2.001c0.543-0.895 1.233-1.612 2.071-2.152 0.837-0.547 1.727-0.887 2.67-1.019v0c1.471-0.206 2.629 0.051 3.474 0.771 0.85 0.713 1.379 1.812 1.588 3.296v0l1.612 11.487-3.341 0.469-1.38-9.832c-0.129-0.916-0.289-1.644-0.48-2.183-0.185-0.54-0.455-0.911-0.811-1.114-0.363-0.208-0.863-0.268-1.498-0.179v0c-0.508 0.071-0.974 0.249-1.398 0.534-0.431 0.285-0.808 0.632-1.133 1.039-0.332 0.401-0.608 0.822-0.826 1.262v0z" fill="#ffffff" data-fill-palette-color="secondary"></path><path d="M120.828 149.759l4.07 7.646c0.149-0.898 0.452-1.702 0.908-2.412 0.456-0.71 1.075-1.272 1.856-1.688v0c1.234-0.657 2.394-0.884 3.481-0.683 1.093 0.199 2.112 0.754 3.056 1.667 0.945 0.912 1.814 2.114 2.608 3.605v0c0.758 1.425 1.224 2.81 1.398 4.156 0.17 1.34 0.011 2.55-0.479 3.629-0.489 1.079-1.342 1.942-2.558 2.589v0c-1.568 0.835-3.111 0.91-4.63 0.227v0l0.586 1.467-2.62 1.395-10.478-19.682zM133.217 166.392v0c1.008-0.536 1.569-1.363 1.686-2.481 0.113-1.124-0.3-2.568-1.239-4.333v0c-0.635-1.192-1.262-2.105-1.883-2.739-0.62-0.634-1.24-1.008-1.86-1.122-0.613-0.117-1.23-0.011-1.85 0.319v0c-0.662 0.352-1.14 0.863-1.433 1.533-0.294 0.669-0.473 1.369-0.536 2.098v0l3.494 6.564c0.598 0.332 1.207 0.521 1.828 0.565 0.617 0.039 1.215-0.096 1.793-0.404z" fill="#ffffff" data-fill-palette-color="secondary"></path><path d="M142.382 142.37l5.412-5.869 9.874 9.107 2.926-3.172 1.817 1.676-8.441 9.152-1.817-1.676 3.228-3.5-8.057-7.431-3.125 3.388zM140.474 132.947v0c0.449-0.487 0.957-0.744 1.524-0.771 0.573-0.023 1.08 0.169 1.522 0.577v0c0.442 0.407 0.677 0.9 0.705 1.477 0.028 0.577-0.182 1.109-0.631 1.595v0c-0.435 0.472-0.944 0.719-1.526 0.743-0.582 0.024-1.094-0.168-1.536-0.576v0c-0.442-0.407-0.672-0.9-0.69-1.478-0.014-0.573 0.197-1.095 0.632-1.567z" fill="#ffffff" data-fill-palette-color="secondary"></path><path d="M172.053 120.478v0c0.286-0.685 0.435-1.374 0.445-2.065 0.011-0.691-0.062-1.384-0.218-2.079v0l2.606-0.612c0.28 0.871 0.398 1.832 0.354 2.882-0.046 1.057-0.273 2.071-0.678 3.043v0c-0.628 1.502-1.482 2.653-2.563 3.452-1.081 0.8-2.312 1.241-3.693 1.323-1.384 0.088-2.842-0.188-4.375-0.829v0c-1.489-0.622-2.701-1.462-3.635-2.518-0.932-1.063-1.517-2.273-1.755-3.632-0.229-1.362-0.028-2.797 0.602-4.305v0c0.419-1.003 0.954-1.863 1.605-2.579 0.644-0.719 1.407-1.308 2.287-1.768v0l1.365 2.251c-0.638 0.407-1.189 0.865-1.65 1.374-0.456 0.512-0.815 1.083-1.078 1.713v0c-0.484 1.159-0.453 2.285 0.093 3.376 0.54 1.089 1.723 2.016 3.549 2.779v0c1.228 0.513 2.282 0.756 3.165 0.73 0.888-0.024 1.625-0.262 2.208-0.714 0.593-0.455 1.048-1.063 1.366-1.822z" fill="#ffffff" data-fill-palette-color="secondary"></path></g></svg></g></svg></g></svg></g></svg></g></svg></g></svg></g><defs></defs></svg><rect width="448" height="360" fill="none" stroke="none" visibility="hidden"></rect></g></svg></g></svg>